<svg width="31" height="27" viewBox="0 0 31 27" fill="none" xmlns="http://www.w3.org/2000/svg">
<path d="M20.5992 5.69998C20.5992 8.51663 18.3159 10.8 15.4992 10.8C12.6826 10.8 10.3992 8.51663 10.3992 5.69998C10.3992 2.88332 12.6826 0.599976 15.4992 0.599976C18.3159 0.599976 20.5992 2.88332 20.5992 5.69998ZM29.0992 9.09998C29.0992 10.9777 27.577 12.5 25.6992 12.5C23.8214 12.5 22.2992 10.9777 22.2992 9.09998C22.2992 7.22221 23.8214 5.69998 25.6992 5.69998C27.577 5.69998 29.0992 7.22221 29.0992 9.09998ZM15.4992 14.2C19.2547 14.2 22.2992 17.2444 22.2992 21V26.1H8.69921V21C8.69921 17.2444 11.7437 14.2 15.4992 14.2ZM8.69921 9.09998C8.69921 10.9777 7.17698 12.5 5.29921 12.5C3.42145 12.5 1.89922 10.9777 1.89922 9.09998C1.89922 7.22221 3.42145 5.69998 5.29921 5.69998C7.17698 5.69998 8.69921 7.22221 8.69921 9.09998ZM25.6992 21V26.1H30.7992V21C30.7992 18.1833 28.5159 15.9 25.6992 15.9C25.2594 15.9 24.8326 15.9556 24.4255 16.0603C25.2371 17.5238 25.6992 19.2079 25.6992 21ZM6.57296 16.0603C5.76136 17.5238 5.29921 19.2079 5.29921 21V26.1H0.199219V21C0.199219 18.1833 2.48256 15.9 5.29921 15.9C5.73902 15.9 6.16582 15.9556 6.57296 16.0603Z" fill="#684CF9"/>
<path d="M20.5992 5.69998C20.5992 8.51663 18.3159 10.8 15.4992 10.8C12.6826 10.8 10.3992 8.51663 10.3992 5.69998C10.3992 2.88332 12.6826 0.599976 15.4992 0.599976C18.3159 0.599976 20.5992 2.88332 20.5992 5.69998ZM29.0992 9.09998C29.0992 10.9777 27.577 12.5 25.6992 12.5C23.8214 12.5 22.2992 10.9777 22.2992 9.09998C22.2992 7.22221 23.8214 5.69998 25.6992 5.69998C27.577 5.69998 29.0992 7.22221 29.0992 9.09998ZM15.4992 14.2C19.2547 14.2 22.2992 17.2444 22.2992 21V26.1H8.69921V21C8.69921 17.2444 11.7437 14.2 15.4992 14.2ZM8.69921 9.09998C8.69921 10.9777 7.17698 12.5 5.29921 12.5C3.42145 12.5 1.89922 10.9777 1.89922 9.09998C1.89922 7.22221 3.42145 5.69998 5.29921 5.69998C7.17698 5.69998 8.69921 7.22221 8.69921 9.09998ZM25.6992 21V26.1H30.7992V21C30.7992 18.1833 28.5159 15.9 25.6992 15.9C25.2594 15.9 24.8326 15.9556 24.4255 16.0603C25.2371 17.5238 25.6992 19.2079 25.6992 21ZM6.57296 16.0603C5.76136 17.5238 5.29921 19.2079 5.29921 21V26.1H0.199219V21C0.199219 18.1833 2.48256 15.9 5.29921 15.9C5.73902 15.9 6.16582 15.9556 6.57296 16.0603Z" stroke="#4FA095"/>
</svg>
