<svg width="24" height="20" viewBox="0 0 24 20" fill="none" xmlns="http://www.w3.org/2000/svg">
<path d="M17.416 18.6667H22.8327V16.5C22.8327 14.7051 21.3776 13.25 19.5827 13.25C18.5474 13.25 17.6253 13.734 17.0301 14.4881M17.416 18.6667H6.58268M17.416 18.6667V16.5C17.416 15.7891 17.2791 15.1101 17.0301 14.4881M6.58268 18.6667H1.16602V16.5C1.16602 14.7051 2.62109 13.25 4.41602 13.25C5.45126 13.25 6.37345 13.734 6.96862 14.4881M6.58268 18.6667V16.5C6.58268 15.7891 6.71964 15.1101 6.96862 14.4881M6.96862 14.4881C7.76731 12.4928 9.71873 11.0833 11.9993 11.0833C14.28 11.0833 16.2314 12.4928 17.0301 14.4881M15.2493 4.58333C15.2493 6.37826 13.7943 7.83333 11.9993 7.83333C10.2044 7.83333 8.74935 6.37826 8.74935 4.58333C8.74935 2.78841 10.2044 1.33333 11.9993 1.33333C13.7943 1.33333 15.2493 2.78841 15.2493 4.58333ZM21.7493 7.83333C21.7493 9.02995 20.7793 10 19.5827 10C18.3861 10 17.416 9.02995 17.416 7.83333C17.416 6.63672 18.3861 5.66667 19.5827 5.66667C20.7793 5.66667 21.7493 6.63672 21.7493 7.83333ZM6.58268 7.83333C6.58268 9.02995 5.61263 10 4.41602 10C3.2194 10 2.24935 9.02995 2.24935 7.83333C2.24935 6.63672 3.2194 5.66667 4.41602 5.66667C5.61263 5.66667 6.58268 6.63672 6.58268 7.83333Z" stroke="#718096" stroke-width="2" stroke-linecap="round" stroke-linejoin="round"/>
</svg>
