<svg width="29" height="25" viewBox="0 0 29 25" fill="none" xmlns="http://www.w3.org/2000/svg">
<path d="M0.900391 2.00005C0.900391 1.06116 1.66151 0.300049 2.60039 0.300049H14.5004C15.4393 0.300049 16.2004 1.06116 16.2004 2.00005V19C16.2004 19.9389 15.4393 20.7 14.5004 20.7H12.7154C12.3216 18.7601 10.6065 17.3 8.55038 17.3C6.49427 17.3 4.77918 18.7601 4.3854 20.7H2.60039C1.66151 20.7 0.900391 19.9389 0.900391 19V2.00005ZM11.1004 21.55C11.1004 22.9584 9.95871 24.1 8.55038 24.1C7.14206 24.1 6.00039 22.9584 6.00039 21.55C6.00039 20.1417 7.14206 19 8.55038 19C9.95871 19 11.1004 20.1417 11.1004 21.55ZM23.0004 21.55C23.0004 22.9584 21.8587 24.1 20.4504 24.1C19.0421 24.1 17.9004 22.9584 17.9004 21.55C17.9004 20.1417 19.0421 19 20.4504 19C21.8587 19 23.0004 20.1417 23.0004 21.55ZM21.3004 5.40005C20.3615 5.40005 19.6004 6.16116 19.6004 7.10005V17.3851C19.875 17.3293 20.1593 17.3 20.4504 17.3C22.5065 17.3 24.2216 18.7601 24.6154 20.7H26.4004C27.3393 20.7 28.1004 19.9389 28.1004 19V10.5C28.1004 10.0492 27.9213 9.61678 27.6025 9.29797L24.2025 5.89797C23.8836 5.57915 23.4512 5.40005 23.0004 5.40005H21.3004Z" fill="#684CF9"/>
<path d="M0.900391 2.00005C0.900391 1.06116 1.66151 0.300049 2.60039 0.300049H14.5004C15.4393 0.300049 16.2004 1.06116 16.2004 2.00005V19C16.2004 19.9389 15.4393 20.7 14.5004 20.7H12.7154C12.3216 18.7601 10.6065 17.3 8.55038 17.3C6.49427 17.3 4.77918 18.7601 4.3854 20.7H2.60039C1.66151 20.7 0.900391 19.9389 0.900391 19V2.00005ZM11.1004 21.55C11.1004 22.9584 9.95871 24.1 8.55038 24.1C7.14206 24.1 6.00039 22.9584 6.00039 21.55C6.00039 20.1417 7.14206 19 8.55038 19C9.95871 19 11.1004 20.1417 11.1004 21.55ZM23.0004 21.55C23.0004 22.9584 21.8587 24.1 20.4504 24.1C19.0421 24.1 17.9004 22.9584 17.9004 21.55C17.9004 20.1417 19.0421 19 20.4504 19C21.8587 19 23.0004 20.1417 23.0004 21.55ZM21.3004 5.40005C20.3615 5.40005 19.6004 6.16116 19.6004 7.10005V17.3851C19.875 17.3293 20.1593 17.3 20.4504 17.3C22.5065 17.3 24.2216 18.7601 24.6154 20.7H26.4004C27.3393 20.7 28.1004 19.9389 28.1004 19V10.5C28.1004 10.0492 27.9213 9.61678 27.6025 9.29797L24.2025 5.89797C23.8836 5.57915 23.4512 5.40005 23.0004 5.40005H21.3004Z" stroke="#4FA095"/>
</svg>
