<svg width="31" height="25" viewBox="0 0 31 25" fill="none" xmlns="http://www.w3.org/2000/svg">
<path d="M13.7992 5.69998C13.7992 8.51663 11.5159 10.8 8.69922 10.8C5.88257 10.8 3.59922 8.51663 3.59922 5.69998C3.59922 2.88332 5.88257 0.599976 8.69922 0.599976C11.5159 0.599976 13.7992 2.88332 13.7992 5.69998ZM27.3992 5.69998C27.3992 8.51663 25.1159 10.8 22.2992 10.8C19.4826 10.8 17.1992 8.51663 17.1992 5.69998C17.1992 2.88332 19.4826 0.599976 22.2992 0.599976C25.1159 0.599976 27.3992 2.88332 27.3992 5.69998ZM20.5993 22.7C20.5993 23.2772 20.5582 23.8447 20.4787 24.4H30.7993V22.7C30.7993 18.0056 26.9937 14.2 22.2993 14.2C20.7508 14.2 19.2991 14.614 18.0488 15.3374C19.6461 17.363 20.5993 19.9202 20.5993 22.7ZM8.69922 14.2C13.3936 14.2 17.1992 18.0056 17.1992 22.7V24.4H0.199219V22.7C0.199219 18.0056 4.0048 14.2 8.69922 14.2Z" fill="#684CF9"/>
<path d="M13.7992 5.69998C13.7992 8.51663 11.5159 10.8 8.69922 10.8C5.88257 10.8 3.59922 8.51663 3.59922 5.69998C3.59922 2.88332 5.88257 0.599976 8.69922 0.599976C11.5159 0.599976 13.7992 2.88332 13.7992 5.69998ZM27.3992 5.69998C27.3992 8.51663 25.1159 10.8 22.2992 10.8C19.4826 10.8 17.1992 8.51663 17.1992 5.69998C17.1992 2.88332 19.4826 0.599976 22.2992 0.599976C25.1159 0.599976 27.3992 2.88332 27.3992 5.69998ZM20.5993 22.7C20.5993 23.2772 20.5582 23.8447 20.4787 24.4H30.7993V22.7C30.7993 18.0056 26.9937 14.2 22.2993 14.2C20.7508 14.2 19.2991 14.614 18.0488 15.3374C19.6461 17.363 20.5993 19.9202 20.5993 22.7ZM8.69922 14.2C13.3936 14.2 17.1992 18.0056 17.1992 22.7V24.4H0.199219V22.7C0.199219 18.0056 4.0048 14.2 8.69922 14.2Z" stroke="#4FA095"/>
</svg>
