<svg width="22" height="22" viewBox="0 0 22 22" fill="none" xmlns="http://www.w3.org/2000/svg">
<path d="M11 2.71702C11.794 1.8174 12.9558 1.25 14.25 1.25C16.6432 1.25 18.5833 3.1901 18.5833 5.58333C18.5833 7.97657 16.6432 9.91667 14.25 9.91667C12.9558 9.91667 11.794 9.34927 11 8.44964M14.25 20.75H1.25V19.6667C1.25 16.0768 4.16015 13.1667 7.75 13.1667C11.3399 13.1667 14.25 16.0768 14.25 19.6667V20.75ZM14.25 20.75H20.75V19.6667C20.75 16.0768 17.8399 13.1667 14.25 13.1667C13.0661 13.1667 11.9561 13.4832 11 14.0363M12.0833 5.58333C12.0833 7.97657 10.1432 9.91667 7.75 9.91667C5.35677 9.91667 3.41667 7.97657 3.41667 5.58333C3.41667 3.1901 5.35677 1.25 7.75 1.25C10.1432 1.25 12.0833 3.1901 12.0833 5.58333Z" stroke="#718096" stroke-width="2" stroke-linecap="round" stroke-linejoin="round"/>
</svg>
