<svg width="22" height="18" viewBox="0 0 22 18" fill="none" xmlns="http://www.w3.org/2000/svg">
<path d="M16.4167 5.75V3.58333C16.4167 2.38672 15.4466 1.41667 14.25 1.41667H3.41667C2.22005 1.41667 1.25 2.38672 1.25 3.58333V10.0833C1.25 11.28 2.22005 12.25 3.41667 12.25H5.58333M7.75 16.5833H18.5833C19.78 16.5833 20.75 15.6133 20.75 14.4167V7.91667C20.75 6.72005 19.78 5.75 18.5833 5.75H7.75C6.55338 5.75 5.58333 6.72005 5.58333 7.91667V14.4167C5.58333 15.6133 6.55338 16.5833 7.75 16.5833ZM15.3333 11.1667C15.3333 12.3633 14.3633 13.3333 13.1667 13.3333C11.9701 13.3333 11 12.3633 11 11.1667C11 9.97005 11.9701 9 13.1667 9C14.3633 9 15.3333 9.97005 15.3333 11.1667Z" stroke="#718096" stroke-width="2" stroke-linecap="round" stroke-linejoin="round"/>
</svg>
