<svg width="260" height="111" viewBox="0 0 260 111" fill="none" xmlns="http://www.w3.org/2000/svg">
<mask id="path-1-inside-1_18_14362" fill="white">
<path d="M0 0H260V111H0V0Z"/>
</mask>
<path d="M0 0H260V111H0V0Z" fill="#F9FAFB"/>
<path d="M130.152 45.654H137.01C138.234 45.654 139.341 45.852 140.331 46.248C141.339 46.644 142.194 47.238 142.896 48.03C143.616 48.804 144.165 49.785 144.543 50.973C144.939 52.143 145.137 53.511 145.137 55.077C145.137 56.643 144.939 58.02 144.543 59.208C144.165 60.378 143.616 61.359 142.896 62.151C142.194 62.925 141.339 63.51 140.331 63.906C139.341 64.302 138.234 64.5 137.01 64.5H130.152V45.654ZM137.01 61.341C138.342 61.341 139.395 60.954 140.169 60.18C140.961 59.388 141.357 58.182 141.357 56.562V53.592C141.357 51.972 140.961 50.775 140.169 50.001C139.395 49.209 138.342 48.813 137.01 48.813H133.716V61.341H137.01ZM154.248 64.824C153.204 64.824 152.268 64.653 151.44 64.311C150.63 63.951 149.937 63.456 149.361 62.826C148.803 62.178 148.371 61.404 148.065 60.504C147.759 59.586 147.606 58.56 147.606 57.426C147.606 56.31 147.75 55.302 148.038 54.402C148.344 53.502 148.776 52.737 149.334 52.107C149.892 51.459 150.576 50.964 151.386 50.622C152.196 50.262 153.114 50.082 154.14 50.082C155.238 50.082 156.192 50.271 157.002 50.649C157.812 51.027 158.478 51.54 159 52.188C159.522 52.836 159.909 53.592 160.161 54.456C160.431 55.302 160.566 56.211 160.566 57.183V58.317H151.197V58.668C151.197 59.694 151.485 60.522 152.061 61.152C152.637 61.764 153.492 62.07 154.626 62.07C155.49 62.07 156.192 61.89 156.732 61.53C157.29 61.17 157.785 60.711 158.217 60.153L160.08 62.232C159.504 63.042 158.712 63.681 157.704 64.149C156.714 64.599 155.562 64.824 154.248 64.824ZM154.194 52.674C153.276 52.674 152.547 52.98 152.007 53.592C151.467 54.204 151.197 54.996 151.197 55.968V56.184H156.975V55.941C156.975 54.969 156.732 54.186 156.246 53.592C155.778 52.98 155.094 52.674 154.194 52.674ZM163.606 64.5V50.406H167.062V53.322H167.197C167.287 52.944 167.422 52.584 167.602 52.242C167.8 51.882 168.052 51.567 168.358 51.297C168.664 51.027 169.024 50.811 169.438 50.649C169.87 50.487 170.365 50.406 170.923 50.406H171.679V53.673H170.599C169.429 53.673 168.547 53.844 167.953 54.186C167.359 54.528 167.062 55.086 167.062 55.86V64.5H163.606ZM184.284 64.5C183.528 64.5 182.925 64.284 182.475 63.852C182.043 63.402 181.773 62.808 181.665 62.07H181.503C181.269 62.988 180.792 63.681 180.072 64.149C179.352 64.599 178.461 64.824 177.399 64.824C175.959 64.824 174.852 64.446 174.078 63.69C173.304 62.934 172.917 61.926 172.917 60.666C172.917 59.208 173.439 58.128 174.483 57.426C175.527 56.706 177.012 56.346 178.938 56.346H181.341V55.32C181.341 54.528 181.134 53.916 180.72 53.484C180.306 53.052 179.64 52.836 178.722 52.836C177.912 52.836 177.255 53.016 176.751 53.376C176.265 53.718 175.851 54.132 175.509 54.618L173.457 52.782C173.979 51.972 174.672 51.324 175.536 50.838C176.4 50.334 177.543 50.082 178.965 50.082C180.873 50.082 182.322 50.514 183.312 51.378C184.302 52.242 184.797 53.484 184.797 55.104V61.746H186.201V64.5H184.284ZM178.56 62.313C179.334 62.313 179.991 62.142 180.531 61.8C181.071 61.458 181.341 60.954 181.341 60.288V58.425H179.127C177.327 58.425 176.427 59.001 176.427 60.153V60.612C176.427 61.188 176.607 61.62 176.967 61.908C177.345 62.178 177.876 62.313 178.56 62.313Z" fill="#111827"/>
<path d="M248 43.2517V67.7472C248 74.5134 242.515 79.9988 235.748 79.9988V43.2491H199V31.0001H235.748C242.515 31.0001 248 36.4855 248 43.2517Z" fill="#684CF9"/>
<path d="M235.749 79.9999H199V43.2495L211.252 55.5013V67.7506H223.501L235.749 79.9999Z" fill="#0E1120"/>
<path d="M260 110H0V112H260V110Z" fill="#E5E7EB" mask="url(#path-1-inside-1_18_14362)"/>
</svg>
