<svg version="1.2" xmlns="http://www.w3.org/2000/svg" viewBox="0 0 141 65" width="150" height="69">
	<title>Header-svg</title>
	<defs>
		<clipPath clipPathUnits="userSpaceOnUse" id="cp1">
			<path d="m-119-22h260v111h-260z"/>
		</clipPath>
	</defs>
	<style>
		.s0 { fill: #f9fafb } 
		.s1 { fill: #111827 } 
		.s2 { fill: #684cf9 } 
		.s3 { fill: #0e1120 } 
		.s4 { fill: #e5e7eb } 
	</style>
	<path id="Layer" class="s0" d="m-119-22h260v111h-260z"/>
	<path id="Layer" fill-rule="evenodd" class="s1" d="m11.2 23.7h6.8q1.8 0 3.3 0.5 1.5 0.6 2.6 1.8 1.1 1.2 1.6 3 0.6 1.7 0.6 4.1 0 2.3-0.6 4.1-0.5 1.8-1.6 3-1.1 1.1-2.6 1.7-1.5 0.6-3.3 0.6h-6.8zm6.8 15.7q2 0 3.2-1.2 1.2-1.2 1.2-3.6v-3q0-2.4-1.2-3.6-1.2-1.1-3.2-1.1h-3.3v12.5zm17.3 3.5q-1.6 0-2.9-0.5-1.2-0.6-2-1.5-0.9-1-1.3-2.4-0.5-1.3-0.5-3 0-1.7 0.4-3.1 0.5-1.3 1.3-2.2 0.9-1 2.1-1.5 1.2-0.6 2.7-0.6 1.7 0 2.9 0.6 1.2 0.6 2 1.5 0.8 1 1.2 2.3 0.4 1.3 0.4 2.7v1.2h-9.4v0.3q0 1.6 0.9 2.5 0.8 0.9 2.5 0.9 1.3 0 2.1-0.5 0.9-0.6 1.5-1.4l1.9 2.1q-0.9 1.2-2.4 1.9-1.5 0.7-3.4 0.7zm-0.1-12.2q-1.4 0-2.2 0.9-0.8 1-0.8 2.4v0.2h5.8v-0.2q0-1.5-0.7-2.4-0.7-0.9-2.1-0.9zm9.4 11.8v-14h3.5v2.9h0.1q0.1-0.6 0.4-1.1 0.3-0.6 0.8-1 0.4-0.4 1-0.6 0.7-0.2 1.5-0.2h0.8v3.2h-1.1q-1.7 0-2.6 0.5-0.9 0.5-0.9 1.7v8.6zm20.6 0q-1.1 0-1.8-0.6-0.6-0.7-0.8-1.8h-0.1q-0.4 1.4-1.5 2.1-1 0.7-2.6 0.7-2.2 0-3.4-1.2-1.1-1.1-1.1-3 0-2.2 1.5-3.2 1.6-1.1 4.5-1.1h2.4v-1q0-1.2-0.6-1.9-0.6-0.6-2-0.6-1.2 0-2 0.5-0.7 0.5-1.2 1.3l-2.1-1.9q0.8-1.2 2.1-1.9 1.3-0.8 3.4-0.8 2.9 0 4.4 1.3 1.5 1.3 1.5 3.7v6.7h1.4v2.7zm-5.8-2.1q1.2 0 2-0.6 0.8-0.5 0.8-1.5v-1.8h-2.2q-2.7 0-2.7 1.7v0.5q0 0.8 0.5 1.3 0.6 0.4 1.6 0.4z"/>
	<path id="Layer" class="s2" d="m129 21.3v24.4c0 6.8-5.5 12.3-12.3 12.3v-36.8h-36.7v-12.2h36.7c6.8 0 12.3 5.5 12.3 12.3z"/>
	<path id="Layer" class="s3" d="m116.7 58h-36.7v-36.8l12.3 12.3v12.3h12.2z"/>
	<g id="Clip-Path" clip-path="url(#cp1)">
		<path id="Layer" class="s4" d="m141 90h-260v-2h260z"/>
	</g>
</svg>