<svg width="22" height="22" viewBox="0 0 22 22" fill="none" xmlns="http://www.w3.org/2000/svg">
<path d="M1.25 11L3.41667 8.83333M3.41667 8.83333L11 1.25L18.5833 8.83333M3.41667 8.83333V19.6667C3.41667 20.265 3.90169 20.75 4.5 20.75H7.75M18.5833 8.83333L20.75 11M18.5833 8.83333V19.6667C18.5833 20.265 18.0983 20.75 17.5 20.75H14.25M7.75 20.75C8.34831 20.75 8.83333 20.265 8.83333 19.6667V15.3333C8.83333 14.735 9.31836 14.25 9.91667 14.25H12.0833C12.6816 14.25 13.1667 14.735 13.1667 15.3333V19.6667C13.1667 20.265 13.6517 20.75 14.25 20.75M7.75 20.75H14.25" stroke="#718096" stroke-width="2" stroke-linecap="round" stroke-linejoin="round"/>
</svg>
