<svg width="108" height="22" viewBox="0 0 108 22" fill="none" xmlns="http://www.w3.org/2000/svg">
<path d="M8.78455 16.7617C7.21439 16.7617 5.89139 16.6745 4.81555 16.5C3.75424 16.3401 2.8892 16.0711 2.22043 15.6931C1.5662 15.3006 1.0937 14.7917 0.802933 14.1666C0.512164 13.5414 0.366779 12.7782 0.366779 11.8768C0.366779 11.2952 0.439472 10.6701 0.584856 10.0013C0.744779 9.318 0.970125 8.62742 1.26089 7.92958L3.13636 8.47477C2.87466 9.01269 2.67113 9.52154 2.52574 10.0013C2.38036 10.4811 2.30766 10.91 2.30766 11.288C2.30766 11.7241 2.39489 12.0948 2.56936 12.4002C2.75836 12.7055 3.05639 12.9526 3.46347 13.1416C3.87055 13.3306 4.39393 13.4687 5.03363 13.556C5.68786 13.6432 6.4802 13.6868 7.41066 13.6868H10.4637C11.496 13.6868 12.3465 13.665 13.0152 13.6214C13.684 13.5632 14.2074 13.476 14.5854 13.3597C14.9779 13.2288 15.2469 13.0544 15.3923 12.8363C15.5522 12.6182 15.6322 12.342 15.6322 12.0076V8.80188H17.7693V12.0076C17.7693 13.098 18.3654 13.6432 19.5575 13.6432H20.2336V15.9112L19.6448 16.5C18.5544 16.5 17.7039 16.2819 17.0933 15.8458C16.4972 15.4096 16.0974 14.719 15.8939 13.774H15.763C15.6467 14.341 15.4432 14.8135 15.1524 15.1915C14.8762 15.5695 14.4618 15.8748 13.9094 16.1075C13.3714 16.3401 12.6809 16.5073 11.8376 16.609C11.0089 16.7108 9.99124 16.7617 8.78455 16.7617ZM10.3547 8.54019C10.0058 8.54019 9.71501 8.43842 9.48239 8.23488C9.26432 8.01681 9.15528 7.67515 9.15528 7.20992C9.15528 6.73015 9.26432 6.3885 9.48239 6.18496C9.71501 5.96688 10.0058 5.85785 10.3547 5.85785H10.7254C11.0744 5.85785 11.3579 5.96688 11.5759 6.18496C11.8085 6.3885 11.9249 6.73015 11.9249 7.20992C11.9249 7.67515 11.8085 8.01681 11.5759 8.23488C11.3579 8.43842 11.0744 8.54019 10.7254 8.54019H10.3547ZM7.10536 8.54019C6.75643 8.54019 6.46566 8.43842 6.23305 8.23488C6.01497 8.01681 5.90593 7.67515 5.90593 7.20992C5.90593 6.73015 6.01497 6.3885 6.23305 6.18496C6.46566 5.96688 6.75643 5.85785 7.10536 5.85785H7.47609C7.82501 5.85785 8.10851 5.96688 8.32659 6.18496C8.5592 6.3885 8.67551 6.73015 8.67551 7.20992C8.67551 7.67515 8.5592 8.01681 8.32659 8.23488C8.10851 8.43842 7.82501 8.54019 7.47609 8.54019H7.10536ZM19.648 14.232L20.2368 13.6432H20.782C21.7997 13.6432 22.4976 13.5414 22.8756 13.3379C23.2681 13.1198 23.4644 12.7345 23.4644 12.1821C23.4644 11.9495 23.4426 11.6587 23.3989 11.3098C23.3699 10.9463 23.3044 10.4665 23.2027 9.87046L22.8537 7.90777L24.9909 7.55885L25.2962 9.52154C25.3689 10.0158 25.4271 10.5029 25.4707 10.9827C25.5143 11.4479 25.5361 11.8477 25.5361 12.1821C25.5361 13.665 25.1581 14.7554 24.4021 15.4532C23.6461 16.1511 22.4394 16.5 20.782 16.5H19.648V14.232ZM24.9473 21.0796C24.5984 21.0796 24.3076 20.9706 24.075 20.7525C23.8569 20.549 23.7479 20.2146 23.7479 19.7493C23.7479 19.2696 23.8569 18.9207 24.075 18.7026C24.3076 18.499 24.5984 18.3973 24.9473 18.3973H25.318C25.6669 18.3973 25.9504 18.499 26.1685 18.7026C26.4011 18.9207 26.5174 19.2696 26.5174 19.7493C26.5174 20.2146 26.4011 20.549 26.1685 20.7525C25.9504 20.9706 25.6669 21.0796 25.318 21.0796H24.9473ZM21.6979 21.0796C21.349 21.0796 21.0582 20.9706 20.8256 20.7525C20.6076 20.549 20.4985 20.2146 20.4985 19.7493C20.4985 19.2696 20.6076 18.9207 20.8256 18.7026C21.0582 18.499 21.349 18.3973 21.6979 18.3973H22.0687C22.4176 18.3973 22.7011 18.499 22.9192 18.7026C23.1518 18.9207 23.2681 19.2696 23.2681 19.7493C23.2681 20.2146 23.1518 20.549 22.9192 20.7525C22.7011 20.9706 22.4176 21.0796 22.0687 21.0796H21.6979ZM27.702 0.362308H30.0355V16.5H27.702V0.362308ZM34.8408 16.5C33.9685 16.5 33.2925 16.2747 32.8127 15.824C32.3329 15.3587 32.0931 14.6463 32.0931 13.6868V12.1603H34.3174V13.6432H37.7194C38.3301 13.6432 38.7517 13.5269 38.9843 13.2943C39.2314 13.0617 39.355 12.7418 39.355 12.3347C39.355 11.9422 39.1806 11.5133 38.8316 11.0481C38.4827 10.5683 37.8939 9.92862 37.0652 9.129L34.8626 6.97004L36.8471 4.8765L38.7444 6.83919C39.2532 7.36258 39.6821 7.85688 40.0311 8.32212C40.38 8.77281 40.6635 9.21623 40.8816 9.65238C41.0996 10.0885 41.2523 10.532 41.3395 10.9827C41.4413 11.4188 41.4922 11.884 41.4922 12.3783C41.4922 13.6723 41.1432 14.6827 40.4454 15.4096C39.7621 16.1365 38.7807 16.5 37.5014 16.5H34.8408ZM56.7657 16.7617C55.1956 16.7617 53.8726 16.6745 52.7967 16.5C51.7354 16.3401 50.8704 16.0711 50.2016 15.6931C49.5474 15.3006 49.0749 14.7917 48.7841 14.1666C48.4933 13.5414 48.348 12.7782 48.348 11.8768C48.348 11.2952 48.4207 10.6701 48.566 10.0013C48.726 9.318 48.9513 8.62742 49.2421 7.92958L51.1175 8.47477C50.8558 9.01269 50.6523 9.52154 50.5069 10.0013C50.3615 10.4811 50.2888 10.91 50.2888 11.288C50.2888 11.7241 50.3761 12.0948 50.5505 12.4002C50.7395 12.6909 51.0376 12.9308 51.4447 13.1198C51.8517 13.2943 52.3751 13.4251 53.0148 13.5123C53.669 13.5996 54.4614 13.6432 55.3918 13.6432H58.4449C59.419 13.6432 60.2332 13.6214 60.8874 13.5778C61.5562 13.5196 62.0941 13.4324 62.5012 13.3161C62.9082 13.1998 63.1917 13.0471 63.3517 12.8581C63.5261 12.6546 63.6133 12.4074 63.6133 12.1167C63.6133 11.8986 63.5915 11.6151 63.5479 11.2662C63.5188 10.9027 63.4534 10.4375 63.3517 9.87046L62.9809 7.90777L65.1181 7.55885L65.4234 9.52154C65.4961 10.0013 65.5542 10.4738 65.5978 10.939C65.656 11.3897 65.6851 11.7823 65.6851 12.1167C65.6851 13.0326 65.547 13.7886 65.2707 14.3847C64.9945 14.9807 64.5147 15.4532 63.8314 15.8022C63.1627 16.1511 62.254 16.3982 61.1055 16.5436C59.9569 16.689 58.5103 16.7617 56.7657 16.7617ZM58.3359 8.54019C57.987 8.54019 57.6962 8.43842 57.4636 8.23488C57.2455 8.01681 57.1365 7.67515 57.1365 7.20992C57.1365 6.73015 57.2455 6.3885 57.4636 6.18496C57.6962 5.96688 57.987 5.85785 58.3359 5.85785H58.7066C59.0555 5.85785 59.339 5.96688 59.5571 6.18496C59.7897 6.3885 59.906 6.73015 59.906 7.20992C59.906 7.67515 59.7897 8.01681 59.5571 8.23488C59.339 8.43842 59.0555 8.54019 58.7066 8.54019H58.3359ZM55.0865 8.54019C54.7376 8.54019 54.4468 8.43842 54.2142 8.23488C53.9962 8.01681 53.8871 7.67515 53.8871 7.20992C53.8871 6.73015 53.9962 6.3885 54.2142 6.18496C54.4468 5.96688 54.7376 5.85785 55.0865 5.85785H55.4573C55.8062 5.85785 56.0897 5.96688 56.3078 6.18496C56.5404 6.3885 56.6567 6.73015 56.6567 7.20992C56.6567 7.67515 56.5404 8.01681 56.3078 8.23488C56.0897 8.43842 55.8062 8.54019 55.4573 8.54019H55.0865ZM65.1206 18.877H65.9711C67.3668 18.877 68.3627 18.5572 68.9588 17.9175C69.5549 17.2923 69.8456 16.3764 69.8311 15.1697C69.8311 14.8063 69.8093 14.4283 69.7657 14.0357C69.7221 13.6287 69.6639 13.2143 69.5912 12.7927L69.1332 10.0231L71.2486 9.67419L71.5757 11.5933C71.692 12.2911 71.7792 12.9381 71.8374 13.5342C71.8956 14.1302 71.9246 14.6536 71.9246 15.1043C71.9246 16.0784 71.8083 16.9652 71.5757 17.7648C71.3431 18.579 70.9796 19.2768 70.4853 19.8584C70.0056 20.4545 69.3877 20.9124 68.6317 21.2323C67.8902 21.5667 67.0106 21.7338 65.9929 21.7338H65.1206V18.877ZM78.3156 16.5C76.8763 16.5 75.815 16.1802 75.1317 15.5405C74.463 14.9008 74.1286 13.8395 74.1286 12.3565V0.362308H76.462V12.0512C76.462 12.6764 76.5928 13.098 76.8545 13.3161C77.1308 13.5342 77.596 13.6432 78.2502 13.6432H78.9263V15.9112L78.3375 16.5H78.3156ZM78.3414 14.232L78.9302 13.6432C79.3518 13.6432 79.7007 13.6359 79.977 13.6214C80.2532 13.6068 80.5149 13.5705 80.762 13.5123C80.7475 13.4106 80.733 13.3088 80.7184 13.207C80.7184 13.1053 80.7184 12.9962 80.7184 12.8799C80.7184 11.208 81.7434 9.76869 83.7933 8.562L85.1018 7.77692H87.6315L89.3106 12.2693C89.5142 12.8218 89.7323 13.1925 89.9649 13.3815C90.212 13.556 90.5755 13.6432 91.0553 13.6432H91.6441V15.9112L91.0553 16.5C90.183 16.5 89.4924 16.3692 88.9835 16.1075C88.4892 15.8312 88.0603 15.3878 87.6969 14.7772L87.566 14.799V16.5H84.8401C83.8224 16.5 82.9937 16.311 82.354 15.933C81.7288 15.555 81.2854 15.0534 81.0237 14.4283H80.8493C80.4713 15.8094 79.6353 16.5 78.3414 16.5V14.232ZM82.5503 12.5964C82.5503 12.9744 82.6956 13.2434 82.9864 13.4033C83.2917 13.5632 83.6988 13.6432 84.2076 13.6432H87.1735L85.8868 10.2412L84.3603 10.9172C83.7788 11.1644 83.3281 11.4261 83.0082 11.7023C82.7029 11.9785 82.5503 12.2766 82.5503 12.5964ZM91.0554 14.232L91.6442 13.6432H91.8841C92.204 13.6432 92.4875 13.6214 92.7346 13.5778C92.9818 13.5342 93.1926 13.4615 93.367 13.3597C93.556 13.2579 93.716 13.1271 93.8468 12.9672C93.9922 12.7927 94.123 12.5819 94.2393 12.3347L95.1117 10.5465L97.0089 11.4624L96.093 13.2725C96.5001 13.476 96.9072 13.6359 97.3142 13.7522C97.7213 13.8685 98.1284 13.9267 98.5355 13.9267C99.1752 13.9267 99.6404 13.7886 99.9312 13.5123C100.222 13.2216 100.367 12.72 100.367 12.0076V10.5465H102.504V12.0076C102.504 12.6618 102.614 13.1343 102.832 13.4251C103.05 13.7159 103.362 13.8613 103.769 13.8613H104.053C104.809 13.8613 105.187 13.396 105.187 12.4656C105.187 12.0003 105.114 11.3388 104.969 10.4811L104.772 9.34708L106.91 9.01996L107.062 10.1322C107.193 11.0045 107.259 11.7823 107.259 12.4656C107.259 15.3297 106.146 16.7617 103.922 16.7617C102.933 16.7617 102.177 16.5363 101.654 16.0857C101.145 15.6204 100.803 14.9226 100.629 13.9921H100.498C100.382 14.9226 100.12 15.6204 99.7131 16.0857C99.306 16.5363 98.7753 16.7617 98.1211 16.7617C97.6995 16.7617 97.2706 16.6817 96.8345 16.5218C96.3983 16.3619 95.8677 16.0929 95.2425 15.7149L94.7191 15.4096C94.283 15.8603 93.7814 16.1583 93.2144 16.3037C92.6474 16.4346 91.9277 16.5 91.0554 16.5V14.232Z" fill="black"/>
</svg>
