<svg width="20" height="22" viewBox="0 0 20 22" fill="none" xmlns="http://www.w3.org/2000/svg">
<path d="M16.1289 18.2116C12.7444 21.5961 7.25694 21.5961 3.87239 18.2116C2.18012 16.5193 1.33399 14.3013 1.33398 12.0833C1.33398 9.86533 2.18012 7.64734 3.87239 5.95506C3.87239 5.95506 4.58403 7.74995 6.7507 8.83328C6.7507 6.66662 7.29237 3.41662 9.98536 1.25C12.1673 3.41667 14.4327 4.2589 16.1289 5.95506C17.8212 7.64734 18.6673 9.86533 18.6673 12.0833C18.6673 14.3013 17.8212 16.5193 16.1289 18.2116Z" stroke="#718096" stroke-width="2" stroke-linecap="round" stroke-linejoin="round"/>
<path d="M7.70255 15.4647C8.97176 16.7339 11.0295 16.7339 12.2987 15.4647C12.9333 14.8301 13.2506 13.9984 13.2507 13.1667C13.2507 12.3349 12.9334 11.5031 12.2987 10.8685C11.6682 10.2379 10.8429 9.92064 10.0164 9.91665L8.91726 13.1666L6.75065 13.1667C6.75066 13.9984 7.06796 14.8301 7.70255 15.4647Z" stroke="#718096" stroke-width="2" stroke-linecap="round" stroke-linejoin="round"/>
</svg>
