<svg width="21" height="29" viewBox="0 0 21 29" fill="none" xmlns="http://www.w3.org/2000/svg">
<path d="M8.80078 0.900024C7.8619 0.900024 7.10078 1.66114 7.10078 2.60002C7.10078 3.53891 7.8619 4.30002 8.80078 4.30002H12.2008C13.1397 4.30002 13.9008 3.53891 13.9008 2.60002C13.9008 1.66114 13.1397 0.900024 12.2008 0.900024H8.80078ZM0.300781 6.00002C0.300781 4.12226 1.82301 2.60002 3.70078 2.60002C3.70078 5.41668 5.98413 7.70002 8.80078 7.70002H12.2008C15.0174 7.70002 17.3008 5.41668 17.3008 2.60002C19.1786 2.60002 20.7008 4.12226 20.7008 6.00002V24.7C20.7008 26.5778 19.1786 28.1 17.3008 28.1H3.70078C1.82301 28.1 0.300781 26.5778 0.300781 24.7V6.00002ZM5.40078 12.8C4.4619 12.8 3.70078 13.5611 3.70078 14.5C3.70078 15.4389 4.4619 16.2 5.40078 16.2H5.41778C6.35667 16.2 7.11778 15.4389 7.11778 14.5C7.11778 13.5611 6.35667 12.8 5.41778 12.8H5.40078ZM10.5008 12.8C9.5619 12.8 8.80078 13.5611 8.80078 14.5C8.80078 15.4389 9.5619 16.2 10.5008 16.2H15.6008C16.5397 16.2 17.3008 15.4389 17.3008 14.5C17.3008 13.5611 16.5397 12.8 15.6008 12.8H10.5008ZM5.40078 19.6C4.4619 19.6 3.70078 20.3611 3.70078 21.3C3.70078 22.2389 4.4619 23 5.40078 23H5.41778C6.35667 23 7.11778 22.2389 7.11778 21.3C7.11778 20.3611 6.35667 19.6 5.41778 19.6H5.40078ZM10.5008 19.6C9.5619 19.6 8.80078 20.3611 8.80078 21.3C8.80078 22.2389 9.5619 23 10.5008 23H15.6008C16.5397 23 17.3008 22.2389 17.3008 21.3C17.3008 20.3611 16.5397 19.6 15.6008 19.6H10.5008Z" fill="#684CF9"/>
<path d="M8.80078 0.900024C7.8619 0.900024 7.10078 1.66114 7.10078 2.60002C7.10078 3.53891 7.8619 4.30002 8.80078 4.30002H12.2008C13.1397 4.30002 13.9008 3.53891 13.9008 2.60002C13.9008 1.66114 13.1397 0.900024 12.2008 0.900024H8.80078ZM0.300781 6.00002C0.300781 4.12226 1.82301 2.60002 3.70078 2.60002C3.70078 5.41668 5.98413 7.70002 8.80078 7.70002H12.2008C15.0174 7.70002 17.3008 5.41668 17.3008 2.60002C19.1786 2.60002 20.7008 4.12226 20.7008 6.00002V24.7C20.7008 26.5778 19.1786 28.1 17.3008 28.1H3.70078C1.82301 28.1 0.300781 26.5778 0.300781 24.7V6.00002ZM5.40078 12.8C4.4619 12.8 3.70078 13.5611 3.70078 14.5C3.70078 15.4389 4.4619 16.2 5.40078 16.2H5.41778C6.35667 16.2 7.11778 15.4389 7.11778 14.5C7.11778 13.5611 6.35667 12.8 5.41778 12.8H5.40078ZM10.5008 12.8C9.5619 12.8 8.80078 13.5611 8.80078 14.5C8.80078 15.4389 9.5619 16.2 10.5008 16.2H15.6008C16.5397 16.2 17.3008 15.4389 17.3008 14.5C17.3008 13.5611 16.5397 12.8 15.6008 12.8H10.5008ZM5.40078 19.6C4.4619 19.6 3.70078 20.3611 3.70078 21.3C3.70078 22.2389 4.4619 23 5.40078 23H5.41778C6.35667 23 7.11778 22.2389 7.11778 21.3C7.11778 20.3611 6.35667 19.6 5.41778 19.6H5.40078ZM10.5008 19.6C9.5619 19.6 8.80078 20.3611 8.80078 21.3C8.80078 22.2389 9.5619 23 10.5008 23H15.6008C16.5397 23 17.3008 22.2389 17.3008 21.3C17.3008 20.3611 16.5397 19.6 15.6008 19.6H10.5008Z" stroke="#4FA095"/>
</svg>
