<svg width="18" height="22" viewBox="0 0 18 22" fill="none" xmlns="http://www.w3.org/2000/svg">
<path d="M5.74935 3.41667H3.58268C2.38607 3.41667 1.41602 4.38672 1.41602 5.58333V18.5833C1.41602 19.78 2.38607 20.75 3.58268 20.75H14.416C15.6126 20.75 16.5827 19.78 16.5827 18.5833V5.58333C16.5827 4.38672 15.6126 3.41667 14.416 3.41667H12.2493M5.74935 3.41667C5.74935 4.61328 6.7194 5.58333 7.91602 5.58333H10.0827C11.2793 5.58333 12.2493 4.61328 12.2493 3.41667M5.74935 3.41667C5.74935 2.22005 6.7194 1.25 7.91602 1.25H10.0827C11.2793 1.25 12.2493 2.22005 12.2493 3.41667M8.99935 11H12.2493M8.99935 15.3333H12.2493M5.74935 11H5.76018M5.74935 15.3333H5.76018" stroke="#718096" stroke-width="2" stroke-linecap="round"/>
</svg>
