<svg width="20" height="20" viewBox="0 0 20 20" fill="none" xmlns="http://www.w3.org/2000/svg">
<path d="M10.0007 3.49998V1.33331M10.0007 3.49998C8.80403 3.49998 7.83398 4.47003 7.83398 5.66665C7.83398 6.86326 8.80403 7.83331 10.0007 7.83331M10.0007 3.49998C11.1973 3.49998 12.1673 4.47003 12.1673 5.66665C12.1673 6.86326 11.1973 7.83331 10.0007 7.83331M3.50065 16.5C4.69727 16.5 5.66732 15.5299 5.66732 14.3333C5.66732 13.1367 4.69727 12.1666 3.50065 12.1666M3.50065 16.5C2.30403 16.5 1.33398 15.5299 1.33398 14.3333C1.33398 13.1367 2.30403 12.1666 3.50065 12.1666M3.50065 16.5V18.6666M3.50065 12.1666V1.33331M10.0007 7.83331V18.6666M16.5006 16.5C17.6973 16.5 18.6673 15.5299 18.6673 14.3333C18.6673 13.1367 17.6973 12.1666 16.5006 12.1666M16.5006 16.5C15.304 16.5 14.334 15.5299 14.334 14.3333C14.334 13.1367 15.304 12.1666 16.5006 12.1666M16.5006 16.5V18.6666M16.5006 12.1666V1.33331" stroke="#718096" stroke-width="2" stroke-linecap="round" stroke-linejoin="round"/>
</svg>
