<svg width="18" height="22" viewBox="0 0 18 22" fill="none" xmlns="http://www.w3.org/2000/svg">
<path d="M6.45646 12.4596C6.06593 12.069 5.43277 12.069 5.04224 12.4596C4.65172 12.8501 4.65172 13.4832 5.04224 13.8738L6.45646 12.4596ZM7.91602 15.3333L7.20891 16.0404C7.59943 16.431 8.2326 16.431 8.62312 16.0404L7.91602 15.3333ZM12.9565 11.7071C13.347 11.3166 13.347 10.6834 12.9565 10.2929C12.5659 9.90237 11.9328 9.90237 11.5422 10.2929L12.9565 11.7071ZM15.5827 5.58333V18.5833H17.5827V5.58333H15.5827ZM14.416 19.75H3.58268V21.75H14.416V19.75ZM2.41602 18.5833V5.58333H0.416016V18.5833H2.41602ZM3.58268 4.41667H5.74935V2.41667H3.58268V4.41667ZM12.2493 4.41667H14.416V2.41667H12.2493V4.41667ZM3.58268 19.75C2.93835 19.75 2.41602 19.2277 2.41602 18.5833H0.416016C0.416016 20.3322 1.83378 21.75 3.58268 21.75V19.75ZM15.5827 18.5833C15.5827 19.2277 15.0603 19.75 14.416 19.75V21.75C16.1649 21.75 17.5827 20.3322 17.5827 18.5833H15.5827ZM17.5827 5.58333C17.5827 3.83443 16.1649 2.41667 14.416 2.41667V4.41667C15.0603 4.41667 15.5827 4.939 15.5827 5.58333H17.5827ZM2.41602 5.58333C2.41602 4.939 2.93835 4.41667 3.58268 4.41667V2.41667C1.83378 2.41667 0.416016 3.83443 0.416016 5.58333H2.41602ZM5.04224 13.8738L7.20891 16.0404L8.62312 14.6262L6.45646 12.4596L5.04224 13.8738ZM8.62312 16.0404L12.9565 11.7071L11.5422 10.2929L7.20891 14.6262L8.62312 16.0404ZM7.91602 2.25H10.0827V0.25H7.91602V2.25ZM10.0827 4.58333H7.91602V6.58333H10.0827V4.58333ZM7.91602 4.58333C7.27168 4.58333 6.74935 4.061 6.74935 3.41667H4.74935C4.74935 5.16557 6.16711 6.58333 7.91602 6.58333V4.58333ZM11.2493 3.41667C11.2493 4.061 10.727 4.58333 10.0827 4.58333V6.58333C11.8316 6.58333 13.2493 5.16557 13.2493 3.41667H11.2493ZM10.0827 2.25C10.727 2.25 11.2493 2.77233 11.2493 3.41667H13.2493C13.2493 1.66777 11.8316 0.25 10.0827 0.25V2.25ZM7.91602 0.25C6.16711 0.25 4.74935 1.66777 4.74935 3.41667H6.74935C6.74935 2.77233 7.27168 2.25 7.91602 2.25V0.25Z" fill="#718096"/>
</svg>
