<svg width="31" height="31" viewBox="0 0 31 31" fill="none" xmlns="http://www.w3.org/2000/svg">
<rect x="-0.284024" y="0.284024" width="29.7278" height="29.7278" rx="5.77515" transform="matrix(-1 0 0 1 29.846 0.344482)" fill="#E5E7EB"/>
<path d="M12.9941 15.4924C12.9941 16.7473 14.0114 17.7646 15.2663 17.7646C16.5212 17.7646 17.5385 16.7473 17.5385 15.4924C17.5385 14.2376 16.5212 13.2203 15.2663 13.2203C14.0114 13.2203 12.9941 14.2376 12.9941 15.4924Z" stroke="#6B7280" stroke-width="1.51479" stroke-linecap="round" stroke-linejoin="round"/>
<path d="M22.4932 15.4924C21.528 12.4196 18.6573 10.1907 15.2659 10.1907C11.8746 10.1907 9.00383 12.4196 8.03871 15.4925C9.00384 18.5653 11.8746 20.7942 15.2659 20.7942C18.6573 20.7942 21.528 18.5653 22.4932 15.4924Z" stroke="#6B7280" stroke-width="1.51479" stroke-linecap="round" stroke-linejoin="round"/>
<rect x="-0.284024" y="0.284024" width="29.7278" height="29.7278" rx="5.77515" transform="matrix(-1 0 0 1 29.846 0.344482)" stroke="#D1D5DB" stroke-width="0.568047"/>
</svg>
