<svg width="21" height="28" viewBox="0 0 21 28" fill="none" xmlns="http://www.w3.org/2000/svg">
<path d="M8.75 0C7.7835 0 7 0.783501 7 1.75C7 2.7165 7.7835 3.5 8.75 3.5H12.25C13.2165 3.5 14 2.7165 14 1.75C14 0.783501 13.2165 0 12.25 0H8.75ZM0 5.25C0 3.317 1.567 1.75 3.5 1.75C3.5 4.64949 5.8505 7 8.75 7H12.25C15.1495 7 17.5 4.64949 17.5 1.75C19.433 1.75 21 3.317 21 5.25V24.5C21 26.433 19.433 28 17.5 28H3.5C1.567 28 0 26.433 0 24.5V5.25ZM16.9874 15.2374C17.6708 14.554 17.6708 13.446 16.9874 12.7626C16.304 12.0791 15.196 12.0791 14.5126 12.7626L8.75 18.5251L6.48743 16.2626C5.80402 15.5791 4.69598 15.5791 4.01256 16.2626C3.32914 16.946 3.32914 18.054 4.01256 18.7374L7.51256 22.2374C8.19598 22.9208 9.30402 22.9208 9.98743 22.2374L16.9874 15.2374Z" fill="#DC2626"/>
<path d="M8.75 0C7.7835 0 7 0.783501 7 1.75C7 2.7165 7.7835 3.5 8.75 3.5H12.25C13.2165 3.5 14 2.7165 14 1.75C14 0.783501 13.2165 0 12.25 0H8.75ZM0 5.25C0 3.317 1.567 1.75 3.5 1.75C3.5 4.64949 5.8505 7 8.75 7H12.25C15.1495 7 17.5 4.64949 17.5 1.75C19.433 1.75 21 3.317 21 5.25V24.5C21 26.433 19.433 28 17.5 28H3.5C1.567 28 0 26.433 0 24.5V5.25ZM16.9874 15.2374C17.6708 14.554 17.6708 13.446 16.9874 12.7626C16.304 12.0791 15.196 12.0791 14.5126 12.7626L8.75 18.5251L6.48743 16.2626C5.80402 15.5791 4.69598 15.5791 4.01256 16.2626C3.32914 16.946 3.32914 18.054 4.01256 18.7374L7.51256 22.2374C8.19598 22.9208 9.30402 22.9208 9.98743 22.2374L16.9874 15.2374Z" stroke="#DC2626"/>
</svg>
